<svg width="33" height="36" viewBox="0 0 33 36" fill="none" xmlns="http://www.w3.org/2000/svg">
<g clip-path="url(#clip0_7_67)">
<path d="M24.762 30C26.2807 30 27.512 28.6569 27.512 27C27.512 25.3431 26.2807 24 24.762 24C23.2432 24 22.012 25.3431 22.012 27C22.012 28.6569 23.2432 30 24.762 30Z" fill="#34A853"/>
<path d="M16.512 24C18.7901 24 20.637 21.9853 20.637 19.5C20.637 17.0147 18.7901 15 16.512 15C14.2338 15 12.387 17.0147 12.387 19.5C12.387 21.9853 14.2338 24 16.512 24Z" fill="#4285F4"/>
<path d="M4.125 25.35C4.125 28.7456 6.64984 31.5 9.7625 31.5H16.5V28.5L9.60781 28.4812C8.09531 28.4812 6.875 26.9456 6.875 25.125V21.75H4.125V25.35Z" fill="#EA4335"/>
<path d="M28.875 13.65C28.875 10.2544 26.3502 7.5 23.2375 7.5H19.9375L23.375 10.5C24.8875 10.5 26.125 12.0544 26.125 13.875V19.5H28.875V13.65Z" fill="#FBBC04"/>
<path d="M19.25 4.5H13.75L11.6875 7.5H9.7625C6.64984 7.5 4.125 10.2544 4.125 13.65V17.25H6.875V13.875C6.875 12.0544 8.1125 10.5 9.625 10.5H23.375L19.25 4.5Z" fill="#4285F4"/>
</g>
<defs>
<clipPath id="clip0_7_67">
<rect width="33" height="36" fill="white"/>
</clipPath>
</defs>
</svg>
