<svg width="29" height="27" viewBox="0 0 29 27" fill="none" xmlns="http://www.w3.org/2000/svg">
<path d="M18.7292 15.75H17.7746L17.4363 15.4463C18.6613 14.1233 19.3347 12.4343 19.3333 10.6875C19.3333 9.24123 18.8727 7.82743 18.0097 6.6249C17.1466 5.42236 15.92 4.4851 14.4848 3.93163C13.0497 3.37817 11.4705 3.23336 9.9469 3.51551C8.42334 3.79767 7.02386 4.49411 5.92544 5.51678C4.82701 6.53946 4.07897 7.84242 3.77592 9.2609C3.47286 10.6794 3.6284 12.1497 4.22287 13.4859C4.81733 14.8221 5.82402 15.9641 7.11563 16.7676C8.40724 17.5711 9.92576 18 11.4792 18C13.4246 18 15.2129 17.3363 16.5904 16.2338L16.9167 16.5488V17.4375L22.9583 23.0513L24.7588 21.375L18.7292 15.75ZM11.4792 15.75C8.47042 15.75 6.04167 13.4888 6.04167 10.6875C6.04167 7.88625 8.47042 5.625 11.4792 5.625C14.4879 5.625 16.9167 7.88625 16.9167 10.6875C16.9167 13.4888 14.4879 15.75 11.4792 15.75Z" fill="#9AA0A6"/>
</svg>
