<svg width="32" height="34" viewBox="0 0 32 34" fill="none" xmlns="http://www.w3.org/2000/svg">
<path d="M16 21.2499C18.2133 21.2499 20 19.3941 20 17.0424V7.09742C20 4.74575 18.2133 2.83325 16 2.83325C13.7867 2.83325 12 4.73159 12 7.09742V17.0424C12 19.3941 13.7867 21.2499 16 21.2499Z" fill="#4285F4"/>
<path d="M14.6667 25.6133H17.3334V31.1666H14.6667V25.6133Z" fill="#34A853"/>
<path d="M9.40008 23.8992C7.70675 22.015 6.66675 19.89 6.66675 17H9.33341C9.33341 19.0542 10.0801 20.4283 11.2934 21.7883V22.2417L9.76008 23.9133L9.40008 23.8992Z" fill="#FBBC04"/>
<path d="M15.9999 23.9842C15.1228 23.9869 14.254 23.7943 13.4438 23.4174C12.6335 23.0404 11.898 22.4867 11.2799 21.7883L9.3999 23.8992C11.0799 25.7975 13.4266 26.9167 15.9999 26.9167C21.1599 26.9167 25.3199 22.78 25.3199 17H22.6666C22.6666 21.1367 19.6799 23.9842 15.9999 23.9842Z" fill="#EA4335"/>
</svg>
