<svg width="34" height="33" viewBox="0 0 34 33" fill="none" xmlns="http://www.w3.org/2000/svg">
<path d="M8.49984 11C10.0582 11 11.3332 9.7625 11.3332 8.25C11.3332 6.7375 10.0582 5.5 8.49984 5.5C6.9415 5.5 5.6665 6.7375 5.6665 8.25C5.6665 9.7625 6.9415 11 8.49984 11ZM16.9998 27.5C18.5582 27.5 19.8332 26.2625 19.8332 24.75C19.8332 23.2375 18.5582 22 16.9998 22C15.4415 22 14.1665 23.2375 14.1665 24.75C14.1665 26.2625 15.4415 27.5 16.9998 27.5ZM8.49984 27.5C10.0582 27.5 11.3332 26.2625 11.3332 24.75C11.3332 23.2375 10.0582 22 8.49984 22C6.9415 22 5.6665 23.2375 5.6665 24.75C5.6665 26.2625 6.9415 27.5 8.49984 27.5ZM8.49984 19.25C10.0582 19.25 11.3332 18.0125 11.3332 16.5C11.3332 14.9875 10.0582 13.75 8.49984 13.75C6.9415 13.75 5.6665 14.9875 5.6665 16.5C5.6665 18.0125 6.9415 19.25 8.49984 19.25ZM16.9998 19.25C18.5582 19.25 19.8332 18.0125 19.8332 16.5C19.8332 14.9875 18.5582 13.75 16.9998 13.75C15.4415 13.75 14.1665 14.9875 14.1665 16.5C14.1665 18.0125 15.4415 19.25 16.9998 19.25ZM22.6665 8.25C22.6665 9.7625 23.9415 11 25.4998 11C27.0582 11 28.3332 9.7625 28.3332 8.25C28.3332 6.7375 27.0582 5.5 25.4998 5.5C23.9415 5.5 22.6665 6.7375 22.6665 8.25ZM16.9998 11C18.5582 11 19.8332 9.7625 19.8332 8.25C19.8332 6.7375 18.5582 5.5 16.9998 5.5C15.4415 5.5 14.1665 6.7375 14.1665 8.25C14.1665 9.7625 15.4415 11 16.9998 11ZM25.4998 19.25C27.0582 19.25 28.3332 18.0125 28.3332 16.5C28.3332 14.9875 27.0582 13.75 25.4998 13.75C23.9415 13.75 22.6665 14.9875 22.6665 16.5C22.6665 18.0125 23.9415 19.25 25.4998 19.25ZM25.4998 27.5C27.0582 27.5 28.3332 26.2625 28.3332 24.75C28.3332 23.2375 27.0582 22 25.4998 22C23.9415 22 22.6665 23.2375 22.6665 24.75C22.6665 26.2625 23.9415 27.5 25.4998 27.5Z" fill="#C4C7C5"/>
</svg>
